<svg width="50" height="50" viewBox="0 0 50 50" fill="none" xmlns="http://www.w3.org/2000/svg">
<g clip-path="url(#clip0_122_18)">
<path d="M24.9999 16.6667C30.5166 16.6667 35.4749 18.3875 38.9062 21.125C40.08 20.7135 41.3623 20.7357 42.5212 21.1876C43.68 21.6395 44.6389 22.4911 45.2244 23.5886C45.8098 24.686 45.9832 25.9567 45.7132 27.1709C45.4431 28.3851 44.7474 29.4625 43.752 30.2083C43.752 37.6875 35.3562 43.75 25.002 43.75C14.8458 43.75 6.57492 37.9167 6.252 30.6375L4.16867 30.2083C3.17322 29.4625 2.47756 28.3851 2.2075 27.1709C1.93744 25.9567 2.11083 24.686 2.6963 23.5886C3.28176 22.4911 4.24065 21.6395 5.39951 21.1876C6.55838 20.7357 7.84069 20.7135 9.0145 21.125C12.4437 18.3896 17.402 16.6667 22.9187 16.6667H24.9999Z" stroke="#B62FCE" stroke-width="3.66667" stroke-linecap="round" stroke-linejoin="round"/>
<path d="M25 16.6667L27.0833 6.25L39.5833 8.33333" stroke="#B62FCE" stroke-width="3.66667" stroke-linecap="round" stroke-linejoin="round"/>
<path d="M39.5833 10.4167C40.7339 10.4167 41.6667 9.48393 41.6667 8.33333C41.6667 7.18274 40.7339 6.25 39.5833 6.25C38.4327 6.25 37.5 7.18274 37.5 8.33333C37.5 9.48393 38.4327 10.4167 39.5833 10.4167Z" stroke="#B62FCE" stroke-width="3.66667" stroke-linecap="round" stroke-linejoin="round"/>
<path d="M18.7499 28.125C19.3252 28.125 19.7916 27.6586 19.7916 27.0833C19.7916 26.508 19.3252 26.0417 18.7499 26.0417C18.1746 26.0417 17.7083 26.508 17.7083 27.0833C17.7083 27.6586 18.1746 28.125 18.7499 28.125Z" stroke="#B62FCE" stroke-width="3.66667" stroke-linecap="round" stroke-linejoin="round"/>
<path d="M31.2499 28.125C31.8252 28.125 32.2916 27.6586 32.2916 27.0833C32.2916 26.508 31.8252 26.0417 31.2499 26.0417C30.6746 26.0417 30.2083 26.508 30.2083 27.0833C30.2083 27.6586 30.6746 28.125 31.2499 28.125Z" stroke="#B62FCE" stroke-width="3.66667" stroke-linecap="round" stroke-linejoin="round"/>
<path d="M20.8333 35.4167C22.2228 36.1104 23.6103 36.4583 24.9999 36.4583C26.3895 36.4583 27.777 36.1104 29.1666 35.4167" stroke="#B62FCE" stroke-width="3.66667" stroke-linecap="round" stroke-linejoin="round"/>
</g>
<defs>
<clipPath id="clip0_122_18">
<rect width="50" height="50" fill="white"/>
</clipPath>
</defs>
</svg>
