<svg width="50" height="50" viewBox="0 0 50 50" fill="none" xmlns="http://www.w3.org/2000/svg">
<path d="M35.417 16.6668V10.4168C35.417 9.8643 35.1975 9.33439 34.8068 8.94369C34.4161 8.55299 33.8862 8.3335 33.3336 8.3335H12.5003C11.3952 8.3335 10.3354 8.77248 9.55401 9.55388C8.7726 10.3353 8.33362 11.3951 8.33362 12.5002C8.33362 13.6052 8.7726 14.665 9.55401 15.4464C10.3354 16.2278 11.3952 16.6668 12.5003 16.6668H37.5003C38.0528 16.6668 38.5827 16.8863 38.9734 17.277C39.3641 17.6677 39.5836 18.1976 39.5836 18.7502V25.0002M39.5836 33.3335V39.5835C39.5836 40.136 39.3641 40.6659 38.9734 41.0566C38.5827 41.4473 38.0528 41.6668 37.5003 41.6668H12.5003C11.3952 41.6668 10.3354 41.2278 9.55401 40.4464C8.7726 39.665 8.33362 38.6052 8.33362 37.5002V12.5002" stroke="white" stroke-width="2" stroke-linecap="round" stroke-linejoin="round"/>
<path d="M41.6664 25V33.3333H33.333C32.228 33.3333 31.1682 32.8943 30.3868 32.1129C29.6054 31.3315 29.1664 30.2717 29.1664 29.1667C29.1664 28.0616 29.6054 27.0018 30.3868 26.2204C31.1682 25.439 32.228 25 33.333 25H41.6664Z" stroke="white" stroke-width="2" stroke-linecap="round" stroke-linejoin="round"/>
</svg>
